<svg xmlns="http://www.w3.org/2000/svg" viewBox="0 0 100 22" preserveAspectRatio="none"><path d="M4.2 14.9L6.2 14.7L8.9 14.2L11.9 13.7L15.3 13.1L19.0 12.5L22.7 12.1L26.4 12.0L29.9 12.1L33.5 12.6L37.3 13.5L41.4 14.5L45.7 15.7L50.2 16.8L54.8 17.7L59.5 18.2L64.0 18.2L68.6 17.6L73.4 16.6L78.1 15.3L82.6 13.8L86.9 12.3L90.7 10.9L93.8 9.7L96.2 8.8L95.8 7.2L93.3 7.6L89.9 8.2L86.0 9.1L81.6 9.9L77.0 10.7L72.4 11.4L68.0 11.8L64.0 11.8L60.1 11.4L56.1 10.6L51.9 9.6L47.5 8.6L43.1 7.5L38.7 6.6L34.3 6.0L30.1 5.9L26.0 6.3L21.9 7.0L18.1 8.0L14.4 9.2L11.0 10.4L8.1 11.5L5.7 12.4L3.8 13.1Z" fill="#16161a"/></svg>