<svg xmlns="http://www.w3.org/2000/svg" viewBox="0 0 100 100"><rect x="8" y="8" width="84" height="84" rx="10" fill="none" stroke="#D95B31" stroke-width="4"/><path d="M40.0 80.2L35.9 79.1L31.9 77.4L28.3 75.0L25.0 72.1L22.2 68.7L19.9 64.9L18.6 60.7L18.0 56.4L17.9 52.1L18.3 48.0L19.2 43.9L20.5 40.0L22.1 36.2L24.1 32.7L26.6 29.4L29.3 26.3L32.5 23.6L36.0 21.4L39.8 19.6L43.9 18.3L48.0 17.7L52.3 17.7L56.5 18.3L60.6 19.4L64.5 21.1L68.1 23.3L71.4 26.0L74.4 29.0L77.0 32.3L79.2 36.0L81.0 39.8L82.3 43.9L83.1 48.2L83.3 52.6L82.9 57.0L81.9 61.3L80.2 65.4L77.9 69.2L75.0 72.6L71.7 75.5L68.0 77.9L64.0 79.6L59.9 80.7L55.7 81.3L55.2 78.7L59.0 78.1L62.8 77.0L66.4 75.4L69.8 73.2L72.8 70.6L75.3 67.4L77.3 63.9L78.7 60.2L79.5 56.3L79.7 52.3L79.4 48.4L78.5 44.7L77.2 41.1L75.5 37.7L73.4 34.7L71.1 31.9L68.4 29.4L65.5 27.2L62.3 25.4L59.0 24.1L55.5 23.3L51.9 22.9L48.4 23.1L44.9 23.8L41.6 25.0L38.6 26.7L35.8 28.7L33.4 31.0L31.3 33.6L29.6 36.3L28.1 39.2L27.0 42.2L26.1 45.3L25.5 48.4L25.3 51.7L25.4 54.9L25.9 58.2L26.8 61.5L27.8 65.0L29.3 68.3L31.4 71.5L33.9 74.3L37.0 76.8L40.4 78.9Z" fill="#D95B31"/><path d="M55.8 50.0L54.9 51.5L54.2 52.7L53.9 54.5L53.0 56.5L51.0 57.1L49.1 56.0L47.8 54.7L46.5 54.0L45.2 53.1L44.4 51.7L43.8 50.0L43.4 48.1L44.1 46.2L46.1 45.5L48.0 45.6L49.3 45.2L50.9 44.1L52.8 43.8L54.4 44.9L55.3 46.6L55.9 48.3Z" fill="#D95B31"/></svg>